HIERARCHY
ROOT reference
{
  OFFSET 0 0 0
  CHANNELS 6 Xposition Yposition Zposition Zrotation Xrotation Yrotation
  JOINT Hips
  {
    OFFSET -20.7972 72.5035 -205.927
    CHANNELS 6 Xposition Yposition Zposition Zrotation Xrotation Yrotation
    JOINT Spine
    {
      OFFSET 0 7.52385 0
      CHANNELS 6 Xposition Yposition Zposition Zrotation Xrotation Yrotation
      JOINT Spine1
      {
        OFFSET 0 21.7843 0
        CHANNELS 6 Xposition Yposition Zposition Zrotation Xrotation Yrotation
        JOINT Neck
        {
          OFFSET 0 21.6948 1.97225
          CHANNELS 6 Xposition Yposition Zposition Zrotation Xrotation Yrotation
          JOINT Head
          {
            OFFSET 0 12.8456 -1.83509
            CHANNELS 6 Xposition Yposition Zposition Zrotation Xrotation Yrotation
            End Site
            {
              OFFSET 0 22.9386 0
            }
          }
        }
        JOINT LeftShoulder
        {
          OFFSET 3.65748 19.7052 -0.211895
          CHANNELS 6 Xposition Yposition Zposition Zrotation Xrotation Yrotation
          JOINT LeftArm
          {
            OFFSET 11.1953 0 0
            CHANNELS 6 Xposition Yposition Zposition Zrotation Xrotation Yrotation
            JOINT LeftForeArm
            {
              OFFSET 29.6607 0 0
              CHANNELS 6 Xposition Yposition Zposition Zrotation Xrotation Yrotation
              JOINT LeftHand
              {
                OFFSET 23.3476 0 0
                CHANNELS 6 Xposition Yposition Zposition Zrotation Xrotation Yrotation
                End Site
                {
                  OFFSET 13.7631 0 0
                }
              }
            }
          }
        }
        JOINT RightShoulder
        {
          OFFSET -3.68053 19.7052 -0.211895
          CHANNELS 6 Xposition Yposition Zposition Zrotation Xrotation Yrotation
          JOINT RightArm
          {
            OFFSET -11.1953 0 0
            CHANNELS 6 Xposition Yposition Zposition Zrotation Xrotation Yrotation
            JOINT RightForeArm
            {
              OFFSET -29.6607 0 0
              CHANNELS 6 Xposition Yposition Zposition Zrotation Xrotation Yrotation
              JOINT RightHand
              {
                OFFSET -23.3476 0 0
                CHANNELS 6 Xposition Yposition Zposition Zrotation Xrotation Yrotation
                End Site
                {
                  OFFSET -13.7631 0 0
                }
              }
            }
          }
        }
      }
    }
    JOINT LeftUpLeg
    {
      OFFSET 9.17543 0 0
      CHANNELS 6 Xposition Yposition Zposition Zrotation Xrotation Yrotation
      JOINT LeftLeg
      {
        OFFSET 0 -39.1216 0
        CHANNELS 6 Xposition Yposition Zposition Zrotation Xrotation Yrotation
        JOINT LeftFoot
        {
          OFFSET 0 -35.3569 0
          CHANNELS 6 Xposition Yposition Zposition Zrotation Xrotation Yrotation
          JOINT LeftToeBase
          {
            OFFSET 0 -5.96403 13.7631
            CHANNELS 6 Xposition Yposition Zposition Zrotation Xrotation Yrotation
            End Site
            {
              OFFSET 0 0 3.67017
            }
          }
        }
      }
    }
    JOINT RightUpLeg
    {
      OFFSET -9.17543 0 0
      CHANNELS 6 Xposition Yposition Zposition Zrotation Xrotation Yrotation
      JOINT RightLeg
      {
        OFFSET 0 -39.1216 0
        CHANNELS 6 Xposition Yposition Zposition Zrotation Xrotation Yrotation
        JOINT RightFoot
        {
          OFFSET 0 -35.3569 0
          CHANNELS 6 Xposition Yposition Zposition Zrotation Xrotation Yrotation
          JOINT RightToeBase
          {
            OFFSET 0 -5.96403 13.7631
            CHANNELS 6 Xposition Yposition Zposition Zrotation Xrotation Yrotation
            End Site
            {
              OFFSET 0 0 3.67017
            }
          }
        }
      }
    }
  }
}
MOTION
Frames:	5
Frame Time:	0.004
0 0 0 0 0 -0 -161.749 68.7005 -83.0986 -10.6499 7.20981 177.16 0 7.52385 -1.42109e-014 -4.18767 15.1001 1.69868 0 21.7843 0 -1.84528 15.4855 1.39464 -2.84217e-014 21.6948 1.97225 -4.39262 8.58103 -13.3016 0 12.8456 -1.83509 14.6947 13.2656 -13.1929 3.65748 19.7052 -0.211895 -8.85802 17.0131 -3.7116 11.1953 0 1.42109e-014 -55.9131 43.6005 -2.91459 29.6607 -2.84217e-014 0 24.9219 -25.87 -39.2137 23.3476 0 0 14.2331 -16.7592 6.02899 -3.68053 19.7052 -0.211895 4.51605 21.4476 1.38031 -11.1953 -1.42109e-014 1.42109e-014 43.1318 46.4125 26.7336 -29.6607 1.42109e-014 2.84217e-014 -17.275 -24.7794 40.4605 -23.3476 0 0 -14.6598 -18.897 0.635906 9.17543 3.55271e-015 0 -0.471337 -14.9405 -3.7357 -2.84217e-014 -39.1216 0 -15.7734 59.483 2.08625 0 -35.3569 0 -2.14176 -34.2959 16.1426 -2.84217e-014 -5.96403 13.7631 6.95746e-016 -1.59028e-015 -1.59028e-015 -9.17543 7.10543e-015 -1.42109e-014 -5.55631 6.87665 6.44476 0 -39.1216 0 39.0958 81.8495 -15.2939 -2.84217e-014 -35.3569 1.42109e-014 -11.3761 -17.077 -24.6188 -2.84217e-014 -5.96403 13.7631 1.98785e-016 0 -1.2921e-015 
0 0 0 0 0 -0 -161.723 68.6545 -83.54 -10.4967 7.06808 177.116 0 7.52385 0 -4.03812 15.2132 1.38648 -2.84217e-014 21.7843 0 -1.86888 15.1597 1.09607 0 21.6948 1.97225 -4.36865 8.81985 -13.123 2.84217e-014 12.8456 -1.83509 14.6157 13.1805 -13.0075 3.65748 19.7052 -0.211895 -8.96909 16.9938 -3.79897 11.1953 0 0 -55.1719 43.0783 -3.60481 29.6607 2.84217e-014 0 25.1864 -25.908 -39.352 23.3476 0 -1.42109e-014 14.1838 -16.6672 6.07945 -3.68053 19.7052 -0.211895 4.67274 21.6631 1.47901 -11.1953 0 -1.42109e-014 43.4369 46.581 26.2282 -29.6607 -1.42109e-014 1.42109e-014 -16.944 -24.3193 40.1914 -23.3476 -7.10543e-015 -2.84217e-014 -14.767 -18.5372 0.28539 9.17543 7.10543e-015 0 -0.32133 -14.7551 -3.59395 -2.84217e-014 -39.1216 0 -15.6638 59.6826 1.85193 2.84217e-014 -35.3569 -1.42109e-014 -2.11269 -34.6692 16.1978 0 -5.96403 13.7631 -9.93923e-017 -1.59028e-015 -7.95139e-016 -9.17543 1.06581e-014 0 -5.18834 5.47632 5.96372 0 -39.1216 -1.42109e-014 43.6417 82.5764 -19.8085 0 -35.3569 7.10543e-015 -11.6055 -17.5201 -24.5861 0 -5.96403 13.7631 -6.95746e-016 -6.36111e-015 -2.98177e-016 
0 0 0 0 0 -0 -161.725 68.6548 -84.0215 -10.4448 7.05912 176.964 2.84217e-014 7.52385 0 -4.0182 15.2279 1.18329 0 21.7843 1.42109e-014 -1.84742 15.2414 0.893555 -2.84217e-014 21.6948 1.97225 -4.28247 8.79095 -12.9929 5.68434e-014 12.8456 -1.83509 14.4233 13.1093 -12.8713 3.65748 19.7052 -0.211895 -8.83185 16.9492 -3.89477 11.1953 0 1.42109e-014 -54.4938 42.5889 -4.57077 29.6607 -2.84217e-014 2.84217e-014 25.3554 -26.0019 -39.6808 23.3476 0 1.42109e-014 14.4909 -16.5959 6.19106 -3.68053 19.7052 -0.211895 4.61824 21.6215 1.45499 -11.1953 0 0 43.8598 46.9241 25.7214 -29.6607 0 0 -16.6322 -23.9616 40.0496 -23.3476 7.10543e-015 0 -14.7524 -18.2663 0.023691 9.17543 0 -1.42109e-014 -0.306896 -14.2989 -3.39826 0 -39.1216 0 -15.4529 59.6613 1.64222 2.84217e-014 -35.3569 7.10543e-015 -2.06218 -34.9586 16.2167 0 -5.96403 13.7631 1.19271e-015 1.59028e-015 -0 -9.17543 0 1.42109e-014 -5.03878 4.22144 5.69325 2.84217e-014 -39.1216 1.42109e-014 49.316 83.1469 -24.525 0 -35.3569 1.42109e-014 -11.9365 -17.8071 -25.4069 2.84217e-014 -5.96403 13.7631 -3.47873e-016 6.36111e-015 -4.47266e-016 
0 0 0 0 0 -0 -161.731 68.6283 -84.5645 -10.26 7.33017 176.796 0 7.52385 0 -3.80178 15.5504 0.953817 2.84217e-014 21.7843 0 -1.92491 15.2374 0.692559 5.68434e-014 21.6948 1.97225 -4.30263 8.82465 -12.8397 2.84217e-014 12.8456 -1.83509 14.3912 13.0498 -12.7036 3.65748 19.7052 -0.211895 -8.73635 16.7805 -3.97821 11.1953 0 1.42109e-014 -54.0045 42.1006 -5.29011 29.6607 0 -2.84217e-014 25.7735 -25.9541 -39.8302 23.3476 0 0 14.2387 -16.3955 5.95955 -3.68053 19.7052 -0.211895 4.62381 21.7064 1.41865 -11.1953 0 0 44.157 47.285 25.3252 -29.6607 0 0 -16.5037 -23.635 39.7671 -23.3476 7.10543e-015 0 -14.0329 -18.0118 -0.017336 9.17543 0 0 -0.170084 -13.5456 -3.20305 0 -39.1216 -1.42109e-014 -15.3452 59.6412 2.41333 -2.84217e-014 -35.3569 0 -2.371 -35.2272 15.4534 -2.84217e-014 -5.96403 13.7631 -9.93923e-017 -7.95139e-016 -0 -9.17543 0 1.42109e-014 -4.78281 3.33943 5.35087 0 -39.1216 -1.42109e-014 54.3628 83.7005 -28.3005 0 -35.3569 1.42109e-014 -12.501 -18.0197 -26.5001 0 -5.96403 13.7631 7.70291e-016 0 -1.32937e-015 
0 0 0 0 0 -0 -161.668 68.6101 -85.0143 -10.1493 7.23591 176.67 -2.84217e-014 7.52385 0 -3.83774 15.6261 0.741095 0 21.7843 0 -1.77816 15.1101 0.450729 2.84217e-014 21.6948 1.97225 -4.35356 8.84361 -12.6622 -2.84217e-014 12.8456 -1.83509 14.3965 13.0247 -12.5112 3.65748 19.7052 -0.211895 -8.66803 16.6303 -4.0852 11.1953 0 0 -53.557 41.6066 -5.86636 29.6607 0 0 26.0847 -26.0241 -40.1056 23.3476 0 0 14.067 -16.2974 5.93394 -3.68053 19.7052 -0.211895 4.61651 21.9398 1.3577 -11.1953 2.84217e-014 2.84217e-014 44.4291 47.626 24.9737 -29.6607 1.42109e-014 -2.84217e-014 -16.4139 -23.4315 39.6606 -23.3476 7.10543e-015 0 -13.7618 -17.8257 -0.218757 9.17543 0 -1.42109e-014 0.031233 -13.294 -2.89925 0 -39.1216 0 -15.2041 59.7729 2.17363 0 -35.3569 3.55271e-015 -2.24424 -35.2962 15.3746 -2.84217e-014 -5.96403 13.7631 -4.96962e-016 0 7.95139e-016 -9.17543 -3.55271e-015 -1.42109e-014 -4.49621 1.97395 5.15039 -2.84217e-014 -39.1216 0 60.8767 83.8349 -35.6147 0 -35.3569 0 -12.5008 -18.474 -25.7377 0 -5.96403 13.7631 4.96962e-016 -3.18055e-015 9.93923e-017 
